<mxfile host="app.diagrams.net" agent="Mozilla/5.0 (X11; Ubuntu; Linux x86_64; rv:135.0) Gecko/20100101 Firefox/135.0" version="26.0.16">
  <diagram name="Page-1" id="F5x3fNQebek5-hFdWKpw">
    <mxGraphModel dx="800" dy="413" grid="1" gridSize="10" guides="1" tooltips="1" connect="1" arrows="1" fold="1" page="1" pageScale="1" pageWidth="827" pageHeight="1169" math="0" shadow="0">
      <root>
        <mxCell id="0" />
        <mxCell id="1" parent="0" />
        <mxCell id="UXrr3luCY0xZDggjcBqB-1" value="" style="rounded=1;whiteSpace=wrap;html=1;" vertex="1" parent="1">
          <mxGeometry x="260" y="41" width="200" height="389" as="geometry" />
        </mxCell>
        <mxCell id="UXrr3luCY0xZDggjcBqB-3" value="" style="whiteSpace=wrap;html=1;aspect=fixed;rounded=1;" vertex="1" parent="1">
          <mxGeometry x="270" y="50" width="180" height="180" as="geometry" />
        </mxCell>
        <mxCell id="UXrr3luCY0xZDggjcBqB-10" value="" style="shape=image;verticalLabelPosition=bottom;labelBackgroundColor=default;verticalAlign=top;aspect=fixed;imageAspect=0;image=data:image/jpeg,/9j/4AAQSkZJRgABAQAAAQABAAD/2wCEAAkGBxMTEhUTExMWFhUXGR0aGRgXGBsaGhsfGh8YGhofHRcYHiggGxsmGxgaIjEiJSkrLi4uHR8zODMtNygtLisBCgoKDg0OGxAQGzUmICY4LTUtLS0yLTAwMCstLy0vNS0tLS0tLS0tLTUvLS0tLy01LS0tNSstLS0tLS0tLS01Lf/AABEIAOEA4QMBIgACEQEDEQH/xAAcAAACAgMBAQAAAAAAAAAAAAAFBgQHAAIDAQj/xABJEAABAgQEAwUEBwYDBwMFAAABAhEAAwQhBRIxQQZRYRMiMnGBkaGxwQcUQlLR4fAjM2JysvE0gpIWJFNzosLSFRdUJUNjg6P/xAAaAQACAwEBAAAAAAAAAAAAAAADBAECBQAG/8QANBEAAgEDAwEFBgYCAwEAAAAAAQIAAxEhBBIxQRMiUXHwMmGBkaGxBRQzwdHhI0IVYvEG/9oADAMBAAIRAxEAPwBSwHAp1SvLLAYeJR8KfMjfp/eLPwDAJNIO6My2vMOp8h9kdB6vEqnky5CEypScqRsPeSdyeZiFimKJlJCiCpajllyx4lqOiRyG5OwcwBKYXJ5hnqF8DibcQVSE5DkQqdfsysDKgBs61H7KE2JPkBcwtUmKLnHt86jIpwtUrMcqqiYgFSlW0SL2FgCE7kQLTWGeqZLmTCqSVAVE1JLqW/7KVIA2CmADd7vKO0NtLgK0y0ggGYtUtCgC6JUlKgpUtDs7pSQTqpSn0AaSN072RmJfHK+yrZqUixyq0H2gCfe5gGmu/h935xI4yrlTK6oUkukLyD/IAg+8GBUta+nsEKOouY0jHaJPTWDdMbioRumDGD8P9tLCiSFG+g3090a1nC09IKklCxyLg/FoDdb2hrG0FKXL6xqpKPvEekR6iTNT4pSvS/vERhVbZYsEvxKlrcydkTsqNSkD7YMRDUj7p9v5R79ZT90vE7TO3CSwnqI7IzDf3xBTVp5H3R1NQk8x6fnEFTJ3CTxMX19sd0VK+vrA6VPQNz7InU6kq8OYnolR+EUIlgZ2+uK3AjrLrg10D0McppSg5VkoPJQI+IjtK7JvGB6n8IqRLAyZKqEN9oeyJ8menmTGsrA5pSFCWsjV8p053GltYkScEmkOJS208L/KKESwImpyK3HraN0SyNPdHhwxSXzJIbnb4xzTIUnQ/AxSWklEzmLRArqYklUkZSeTAf39InAqOw9hHwj0S1cvf+UTedaK6uH85BqF5muwN3PXYeUNFDLIAAGVLAAf3j240QPb+UcJk6YTuB0NoksWFjIAA4hRZSNSPUxhMs7/AAgUhJ5H3R2Es9fZFNstJ7S/ve8R5EHL0PsMZEbZ0L1dUlCTMmKCUhrk7lgPVzpCBjVZOmVEyUpQRNyntVnwU0ixyg/fUGKiLlwkRM4trJ5nokoQO1J/3eXsNlVEzkzKCAdGUo7RNwehTMkozFUxMshpqiP94KcxzEM6pSFE5HN2e8bxmKDJ3CmDhKZcwoKEIfsJah3kg+KbMH/FX/0pYDeDXFONCkpJs5wFNllg7rVZNuQ18hG+HqUpnvfX9abQgcdipxKr+q0ksrlU5ZShZHaHxOs27oYNr4o4kAXM6xYxBTNHMe2JuHSu0WlCS7nQFy29vKLG4b+iWUO9WTs3/wCOX3U+q9fY0WJhvDNLIAEqUlAGyR7zufV4Teqv+uY0otzFPBMIqVJATKKQb5l90ezXTpBeo4cmvlEzu2vkJPWzw2JSkC2kRp00384VK+MN2hJxFiTwgWOeaddQgN6uS8bzeDqRVlgqPMsPPRMG1qKtVfhECoxaRLF5gfe4t+iIgY4nXYwJX8F0GUhMhSSH74mKc67KJS3pEP8A2Mo8qQZZSphotb3+8HZ+kb41xehKkZU573D6m5DnTK7edhoTHknE6iY6ky0JADkqVmU/kn4xDVNoyZdaZPSC67gGUXMpZSRsrvJ59D7zAWfwfUJLNLUGcHMR8RDeaepUm8wJ0LpRz1Dk69Y7fVwlIMyatual5Rz6QL82o4N5YUTFSk4OUpjMmSwOSSSf6RD5hVBKlpSlJDJsBoP7+fvgLi1PL7LMnvElgSS19PQdIgS8FyLkEqUVLUCoFRygDXuk2HWB/m1PMMulJjrXUSVpUSm4TezgjkQQx3iDgiaeUsK7GUnbMiWkEewfCIOLYquSUiSrtQWHhNuTrT3Wa2kQqzGexUypCiAHUUaJfZ9y+0WWqDaxlewYjiPk1TzVH7ITlB5vf1F4ndnlQgDc5oRMHxxIVlKxlOzuQSHsNdLt6w4YfiiVpDl2+0L2hhHB5i1SkyzzFKZJTm5awMloQgFkIB5hID38uUGaxjKJfkT1G3rpCzUTipXIDS0Q4zOp5E1raeUs3QCeYt/SxiL9RRyP+pX4wSQjMlXRiPaAR7x7I4pFopCCDaymOUlBUFDZzf0L7QLVNmj23cCGRaXgDMpmJHfsToYiEBnE1MzVh7I9TVK+6PfHQSy1jMjUAj7avUflEzp79aV9wxkc/wDP/wBI/CPYmdeTcMwpU6lSagrdWa6ggTTJKgci1JHdCsozAeRu5gj2AUwAYAMABYAaeg0gstpiAQGBDt5+UaOmWlS1kJQgOpR0AGpJ8o3LTFvItShYQmTJKUz5zhBP2QA61t9rKC4G6ikOHeCODYJKpJYlSUsNSdSpW6lK3UW1PKELgHHPr+KVE8g5ZcsJkJP2UFYCi2mZVifNtos+XOfPYZkm3yhHUm7bYxSFheeIY2I934RslYScoN3sNSH+UaCW7uXG4ci/K0c5tQlKSbJA1AAB9YWMOMz2oqSFgN4jz0tAzFa0IuuYBrbl8z5wCreIlLWUUyczazD4R0HMwCxahmKAMxRmLUWSh2S56C5DdWgLVlBsTDpRYzzG+MpneElJKW8ZO/QbwHGComIzlRSpnKlFtb25CNeJq9EtAp0BJmEXKQGA5sD7I1w6iEyX2lVMUEIv2YsGe5ZNyTfyjlD1FDA7f4jqUwoNhcyDS006aoiSe2CNnNuRB1IJh+w6TWCVL7RQlhQILgFQ3GUHS3PlCng/FAlzrISlBDFgATvc7l4csVSio74mqKyMwCVHQgW6Hw6coV1TPv2EWHQ/f1aEZCoyIPxpdWppUozMlyucsJDvYJQkXckMCTEObh0tCwubOBSlOYFZPdPIh3B6NB0CeJClLZBCRZ8xZjYnfd4A4XhEufKmzaleinKipIFgbXO6iOtg1ovRXc23i31lFuRcGCVYkmYqYsLUSClUqUVqU53Dbq631MEhjkqYJk9AKAiWiW6g5ClKY2fVs3kFQn1LBSshA6i3LTce6N8PWJn7DMQlZBLcx+UNvRQre3/kZ7Ag23Zj9ROpKSlK1i4SH7ri1lOxvHLEK4LUEJT2iUulSUlhm0cgAvc+6GHAFqSk08kq7OUMgWwJKtyPIH2tA+to0068qKebMQsJDoYrCg5FypLPe/WM4UlZrrAitY2YSGnAcqlrZSphSEoASBlbS4/DYQQRJq5EsTFATDmZQSHWxcEOGcAnq3vhbx/i2sp5ykmWqQH7qVAE5Q32/tdWMOVHjrJkioSJUyagLBcG1nDDe5i7U61PN7idUJIFwDf165misb7VASnOMqu8lSSCT5XcDz5x0Q+cvsB8P7x3rKuQmahCj+0WQlJS5d+bbdTyjadJIJSR6/r4wSnVLDMTZAOJ2okWKj4WIDany/GIqR0j3tyWGgDAAROMgL6K35GCFoO1pF7NhcwuYmpImLB5g6K5A6iGeYlQNxp74EYkoJmFxqARb0+Rjg0sBAqaiXsfTMQfhHoqE/eU/RYPxiUqamIkycgu4HsEXBkkTXtv4j/qT+MZHDtZXIeyMi8rHzh2rROppUxLMUt5EWIPI2uIq36SeKzUKNJILyUK/aLH/wBwjQD+AHfc9BcLTYnNloVLlzFoQvxJSogHbbS1ogpkpAYWjRNbEz1o5vGf6IqhMmuKSCO1lqQP5ksv+lKvdFxT5oQrtBZLAKHrr5xTXAEn/wCoUxckBSz/APzmRZfGWKiVKaznYW3+WsKVDc3hwsm4pjaJILqAFz6mFCZVTK5ZQ+SWPsg94jZ9wIDy8Oqasla1ZEkm51boPP2wdwLDBT1SUocoKCpZUXNtz0vCOorgAqpzHqOnsLmHKPCRLR3UtlvtozHXbf0EK8yqmTpi5ssAoQFMo+FKR3VL20L6bs0GqzHBUGZLSVokBJUpQ7qljQXYkA7AMTzgXg6UOiWUkAXsGSz6X8Wh9YUG1MnJjNMEAk8xEmy1JUVEFJmMbm4IGmbyU/n5RmN4mZmQWASGAAA3JuRqb9ANAA0NNRw0JomIClApUWzlyk7MBzfTyhVreHqlBKezJbcX/ONKlXR+TGEYbbDmBp07TnFscMyFop5SllT6sBcjUglrDeEnh/g6dOWFLZKQoA3vzPlbfqIt4yFIloShLu3JgCLWG35wHXujAKvTOIBnIBB69IDl1MyoXfL2XeQJR8SgBdQJPiGw5PCBxFUZJipRQUMdCGcc/nFqSqFOUDKHCnbbMQ7vzeAHGWHyEy1TJ4UpQ+6w3ZnPivtAaDWcXHM6hX2NZZUsxQfXzibgNMtUx0DwkEqsyb63t+MFaTBETwVSETlh7+BwX08Wl9Ya+GqVFOCJkiZZYF5ZTLDFnUpT51FybEjyEaNWuFU4lx7W+9z4QnhK10a1hU1S5ai7lKUlBIBL/eu/hcR3q8TWAuaiSSmzAlRmKc+Ii6UJ18TaeTxcdqUzKhlEdmgBSUOHWQR3QefTk3OBPGfEqUpTLlspajnmA3SB3ShDb+FyDYOedlaVJamWlBSJIYjnmQ5+PSKtaZVRmlyrnMe8UnRkqCe6FCxewhrpFyZ8qZUSUPMSDLzzDnUyWAynQA8hZ4pz6wScou9h+uUW19HGEz5IQ5eVNllS02LKLGXY6Om/kRBatIIoF5FcLYsnAnPh7CTUZZ045VJLAMcxbQlt2GvWDqq2UkEITOmkEAi6rnqs6N1jOIav6vLckjMWDWuDz6mPVJOTtpMzLnS40YNqSDtGTUYg39eszr7xc8dPVp7LAT9lQUbsoMyfnfccoJULrJ5AX53+VoE4RUVFQVBakK7NNrMCSz94HQ2PrE3C6pLGYCWZiORB09C49sMo9zmL1KZFx1hqsSlUtjZtPcIiqoZc3xJBYMDyHJ/1vHBE93J0idhxcE+UED7mgCpRYGq+Gknwkj2GFTirBTSy0zCoKQo5XFmLEgEdQDfoYsmYYrv6ba/JJppAN1Fcw/5QEJ/rX7IZopua0o1QgRK+vJ5/GMhTzr5xkOdj74PtT4QwEiPDLHONShUcZc5YXlI7rWMcBKR4+jABNRMmEOpMohI2uQ99vD74J4uTNqkImF0+JbN4Rdh5s3rC99H85QmTirTsn9ik/n7YK0lS65k5dwTbna59zQrXbaCYeku4xtpwSHyhvsgDRra6wqT8ZX/vBLCUixzNmIB8I/mNvWD1TPmzEiXJKAFpdK3JIfdhFecRJlpBkywrOFftFHQZe7lG5u5J0fnrGXo6AdyWmvTWwMl0/FZ7RSggsq5CTfu6baACD9JXpnJCpSGcFKg+qnJBI2d/nFelCHymx+fWCvCS1JqpZzEAqZXIva77ND2o0qFSy4P3hSvQdIyVWJdmP2mVKxZk3PeJCTfb8I6YGmdMGZayljvo2lwrSCdfhyZk8rSjvu7anKkBrHZ4iY7W9gkktnLhmF2+QEZ3dYbEGT6xBqSeOYyJpzNLqUwyB0AjaxLs7sW1s8QsMxQTVFNMp0SiU957r6nkzMRyhFm8WVTapys2Ups2mr30iZg/EbISmZKAS7BUvun439YKdJURb8nznfl36iO+M9qgINMlPaTFgKJLA2JJdiwtBCZhpnyDLqSCNlszEuBY7X1iTRrC5ctSbgpBfqLRIq5apgSlPdFlEHcPpFi1lv1+/wDUzbkHbx74kSapNN3lYX+0zKSpUtRIdJYqUMpIQdXv8IlYTxEiqlTPrGWUkq7NKXZFy3ds511Ot7Bo7YqlM9ZSciUi6lL8KQHuxIGY7Dp0hGxDFilZMnLkQWQogFWvdNmuWEFBasnEfpacNnr684z8W4C4C6dKlJZ+gLMfN7aRW+JJJJKhlO4iz+HsbFanKqYUTEsXBYOG0HqxGkD+KOE5y05z2IKcyipJYrDu6kseeoiumqNTYq44+kOtbaOyqev5iVwfw+uoqAGcDXm259jxfOHyihLa5bMkXLaB+UKvBNHLTKQUoUjMHWq4JIbu3LsSduW1oYKqXKTMA7mbKS58Q6322frFtQ7u2/w4iFd1b/EvA+864tRoqUhK5aShI+1diLjyhcxWepKkUyEEd0gMwSAonUu+ZvY8F8XlK7BSpa83dsk803a51t8DAmnWigpV1M0qmTld5ld5QKnIB1YDR+kApg1Lhva9eHwlUG0AjOePfCNFhU0ICEqEsFgsJLqNvvavePVYaJCglJJSoOT7m+HuiLwTxCKlK3IzhZdtwSSCNwGbWGPEhmRmbwq25H82ioo9n5ic9Vw+1oMQlhBehIykDaIADtE+j3HlF6PtwVb2ZsUuQOZikvpirO1xJaBpJQiWPNs6vetvSL0pkjO5sBc+kfOKlqrqwlL56mecr6jtF29AD7BGrpxYExRsmBeyjI+kf/a/D/8Ahe+PYc7N4HtklCFMahEdfSPD5QvDQjgE3L2tzdATrzI/CDplshEspfO7/wCbXztaF/BUvMyt4mHtIh3raH9zMUwSlT30536QlqnC4jukUFgTJK6rs54ppGVKTKdSjqGKQO91EJmLYEp1zENqbEsosbkE63hurCCuXNTLzWcLygeIt4txqzjY9I5LTKdcuoLTXJScoSGNxcOncawjRZkAK/GPrVCN95VlRTrzXBBJfSGvhbAZvaypk1OWVmSU94d5TunQ6DX0g5TYjTSyFKmIIRZJT3jcMO9c7dIjYfxSJ9QE5yjKWSDorUHyt6w22orOp2pjxkMwzt6x3mzikpUQkOl1f3hA4pWpS840LgEeluYcPDYapM5JWSCEuO4GZiLltHeA9dQzJqVdmlJsychzAvcbvod+kI0SVqXMtp7I1zETGa0rW4CUgBgEBhZ9tz1iBJmqcIG5FupifW0qpaihaSFcnv7IJ8HcPTJlQhSpZCAXJUC0bJqoiFjDupuCOJa3CeGmRKluskhL5Lalz6QYK0h1E/ZG/N43yZS+tmsNnJ+cQDSqK3IZITd+WwAjHqOyrZVv65mOW7Vy7GVRxOmauomqJyo+R1t1vAdUsBCu6S25+XPSLA4swBU1ZyqGlkizu51hal4YvL2eRXdLWDsR8YPQ1C9mB4WxN2iwZcSDwRNaqSPvKZnZ3szv5H0i0sapFBBQiWiapaQGUNA6QsZtksX30OpYQn0XCdQZkpaZPdSxVoHHJne4184e0zFBOY/s0ISxJ6cjyiK9VCwcDn9ohqmBYbTe0XKihaZJlyXM9N2zqyJALkkE35c9IicXVc2QpOacgrLZkv3mDlsoFkktvzjevxpVMJswIabNDIJF0geftbpFc11YuaoqUSS9zBqKrVQEw9DTkd48fU/1Hqg4q7R01ABQvlZTaXuXtB7EqKXUylhKVlkKWggKDWZkqDBTn7L36RVEhTAEm429X1i5OBDONIMzi/dzaM2++vKF6unFOoGW/wAJOsRUp71xK34KrFU1UjKmYy2Qc6WBJF28i7dIvFKkqDOCFDV9R0bzhcx6gBQFkFakuWRYBQFnJ7zPyvHnC9ItIRMKyUqS6UF+7o7PBK1fvZHNpmVQtVN97EfWEJcspUQdi0TafWONcGmk82P69QY3km7wKn3XI98Ex3LeQ+LK7sMPq5rsezKEnrMZA96gYq76JKMTMTkuLS0rmewZR71CGz6ZK/s6ORJBvOmlRHNMsf8AktEB/oNvXzCdqdXvXKjbor7Iijeyxl5xkZGRozPnyqUdY1KTzjp2camWecZs0oR4dQRNz7JKX9S/wBhpTjUqoQtCZS8w8LixGrAAvvoecDOFUpDJ+3+8I5DwI92Y+sT8crUpfIDLyNnygB81rN7zGbqyC222ZoaNfGRcVxOdmlS5LAJScxDWDsxPTkeY3LQq4tWqWScysxLEhSg++gNxEvDVLStbzO9MB8PeBJazCx0GsD8TKETFJQvONM4e9g5HTM7ekNUqKoBaPBQQb9Z5S0wKwnIpYP3VnODo6ToT0IvDdwrw6iQtSlMtQAA0JQ7toSCo3cdIUaSqCSl7+WzWiyqhUlUuXMTKLpbMQSFD0sDA9U7rYA4MEUFrgTpT0lQiYDLEs37yn7pQdQUjUhza20QsXr6KnQpMtC1KUe+qSAlYvcpUdQDa2j9YLTkTUosoGzgZGDHnrFcYkk1dSUdmlK0sknN3CXJDpNtBp0hbSgVWN+BKEMevr3wyrGqFa0rIqiwCSpRuzvcC5IMM3DWOompWxJKVHsnBTmRsVNYDrCHj2HCmX2ZHeAS5u10iwBvq9yY5YJXGUCUksAUljqFDrtv6WhirplZTYZhhSDAC97y5sNrSsLUpNklxlU5Yau3KNlV6VZu8Qk78oQsF43RKQtFQhSVBiSkPmAIs21va8eVXEoC1CSpQlLUQ6gCAA2a1yTtbrCLU64AFor2ALkCNuNyQZKV9qJeQ90tYsCAFE6XGu0CzjhGQBCVMoCYxexsSlQsRmYet2jpgs6RPyEzcyM1paiHs7Ok2vrHmOzlialSQkyrhWUjMlgSLWB9sL1AjYtn+vVoRFKna0LYZiaDmmlZAP2SWAa1xzjRPFNNMJSuYhuup8hp6whcQVa5KVKVlUZ47oJdSEkXLbFST6PCvTVa3Yb2aHKeiYJk+vfGF0lNzcnytLH4lpkVJaWqwDguXu+55sfZCXU4FOlPnlqKdiASNdi0SMGmzhNRKJDGYDc2caRY2HJFOjs59SntJizlSCO7mNgn7R5na9miEFSjdVIPuhmqnT2XmV/g/DEyatDJKRmBUpdg3IHc2MW/XyLS0pJSlCRcewdNIG4fIUtYTNOZaQfQXZ23OvlBqVOAZIuwAJtFRVNUEPj+pna3UM7D3fvBPEWcyCHsbFYItttudNN4DcN44gThLdWUJAdW3y26XifxQcmZYCcpGjm5GgYctYE4JNRNJQtLZQA5Fjtblrz2iKtTpbiVoUwaZJ4MdMWUCUEPcb9GPzjik2gaqlmpSiWtRZKnlrHI3yl/LSJ8tXMxwfdUJgdgVAAbyrfppq81dLlDwyZSR/mWSpX/Tkjp9CM7LiRB+3IWPUKlq+CTAfjtKplZPmHUrPsT3R7gI5cC1/wBXxCmmE93tAlXkt0H+p/SN1HG4RQodhE+mYyMjI0Jmz5Q7QdY3kDMQlOqiAPW0bmnT+n+UEcDpgZhX9xJPqbD4k+kZpNhNEC5k3ABlrpgGhkhv8pSn84PiR20ybnlsAl1J3OW6XVox5CF7CJoRUy1qLApWkk6Mz/FI9sNlJiU2coplSlJlAd+aRcsHACfxjL1l73HhNXT4zEHEQpKe0QlkFRZQ2IsdNib+ohc7Na1BKUklRYAbvpFnYHKQmaoFhLmzFZELLgOC1xZze34QUqcIQm9OhMmYXYoSH6gkMcqgW9RDCakLgC8LVb/VsRLwfg1aVJM8hrdwO76sSQw84tbBqRCUlTgk6/w9GMCcPwZXcMxSs1nYlmPMG2p1hjFMSQAqyeQ/Txn1alWo245gKtRdoQHEHVtFMSgsuwOhAPkAX9IrFWf64opDd5k5hc2chugtF1iUMoSq9+cVv9IU2TTTVMEqWrvoDspCiGVsxTYW6wXTptOOuPKW0tbc9iMxL4irVTJmY6jW3Kw3L2A+GkCUz8pf2iJZkTpxTllHvktlDD05CDGH8KqCk51HNZQYApGhDq38h7RGgaqUh3jH3IOFkikwqWUy58xOZORSpiXZDIyhKe7dSi6EsS1z6rM6vsEDawbQXew6w74zTzpdMsFKCgJNknckHNl562c6vtCDT0wUWAcuR19kRp6i1U3EwPeVxbrJcmsWGLt7vhvDxgmJCopmWnvBwVAa63Lb8zC7SU8koIUQhhuTctZmFr8zvDT9G2HAy1KU5C1HK9nAIHxBLdIW1SqyX63ENqWCrmKWLyjvp9htGN/nAhE1l5tgf1eLsr8LlTDlMsKUoeLLt5pvrFZ13DZNSqQlQBBAu7X5czoPOLUa67bNOpagVT4GaYaV1FQhElJWxcta29yLQdxbAKjMupAvLUns0IHaXJDZnu7NdvPeDmBSZGGyi4PakkFWXvMGJYbDqeUc5v0ioeyEEHQOQrW1srQNXDOCgx5QVWtUY9xbiOOGUM0y5aphCZgAUtg5JYhiTqLt6bRtOkZD+9ZSy7EcnJYPyA9kJP8At7LWpJWFkpJskjLo257xvDNguKCoBMucVpuFJWA45NYEa6X1ihC3sVPnM+pp6yDc3HlCc+ilKyqWxYHXQDUkwt09OioUudKIlgKyy1EXOWxccn03gljdamTKSJqu8e6NsxJuOvd2iLw/SgkHJlSTnSnlmub77+UCq2A9nJt9pNIsqFr+XhC1Z2xTLTNCbF8yTr3SCfePbHsgNrErE1d4DkGiAFRxFqhzeDU7k4tK644w558xQOpf2gGEebTqG8WhxJRKXNWUgXbfoNoRsRw2YCXTGjTfEqVhb/3HxD/iJ9n5x7Ct9WVy+MZDHaHxguyXwklShyaGDDKQinzJF1k+wWHvf2wACSpQSA5JAHrYRbOGYalMpKWsAB6JEVqNYSEGZVeIJVLmS1EANbMXZJUQCTto3lFn8FUxRL75zFRdthyYbQGxrDkrUUEAjLnbZwW08iYIcM14UgA+JHdUNNHyn2e94T1N2UEdI2G7myBcTpQhS5BZIROCwRd0k5ksdsoJfdmhpoq1PdCbre5ZwH5nQPaOHFdCsy+3lqJKFiYQDqbgu4PdYsBHTD5ycx7yXYZgFOlJb4kAQqSSuMev3hqjB0DH0YXClEu+9xGtdi6ZLqX4Ui6vleINViOSWqYC+UEuNLahoSuJ6wzZXbLJJzBCUAhgSCoqIAckJYX+97ZRXawBt/EpQoCq1m4j9h3E0mb/AAm7BWpbkICcXS3QZokon93LlWHfqGvmckxWyFns8zFyQBfRob+DcfVNWKaYFKzJISoMWYEnyHzjqlKqO8pvY+UdfSLRvUSFuEcKMqSpKpSZZV4QDnLEkh1Ha+kSEUS+dr2KevLlBzsMjKzMAN9W6nnAjirFzKQ0pitWvR9/iejEnSFnp1K7cWPziqVCz2HWbVxRMSJRKVZhcAKDAczo3QmK+xzhBUuYk07sotlP2Xt4uT+sC6qunFZUqYolJO+X4M0EcC4lmJUlM1bywoEZu8QHcF9bNvDlHTVaALIb+I6Rs0jTIAMnYJwoe0yT0rWVg2HdAbUklQJ5Ws8WTQYUEKSoOAABlIGUNyG0DVY6EzigMFywCq1ilfJvJ/SOWMV8ycvspCtfdzJPIXMcXLWY54sOPjE3arXa17DrGWdUJS4Szm5Znc29sRlSJUoGYEnOA5s5JtcnW14q3E8WnSFkpmlQBsH1Z9QG5Q28HY+upGVSgVqblYDV+p5RSoKwFyB7rdJd9CaS7gbjrJOPoRIlKqFeM90uSQyiLNo5JeAuMcFyZchU18qggKUDfvECyQ4IJU7PbnDRjOECdSqkqBzZnDv9m7udmEV1j9ZOSpCJpUQl8ocgNzHp+ud9MyrjqR6/uH0gZx3WtY58ulotVE4AgBRZ+T68oIcMYuqTOQpKj4gMuju+sC6+bn0AA6anfWJ3CdDnnpWoHJLIUu3XQDc205AxoFR2ZvG3qHcQeJYNfUrq5qpS5LJlrORViXGV2OzOx2MPGHS7pLWZ/cH+MLWFT5SpyshSMxOQPdQD6Prck2hrWsoRs506PGXcbiegmLqGNggFv7kaqXmWT6eyIqjfSOrRxIOgNyW9sVQE5PWVGBaDsRlnMVfJ9hC5iNELsB6W+UNFRUpzkZhYkX3a2xiFUpCtCPQwyptJESPqavuj2/lGQ2fU+nvH4xkF3iRaJfCVGZtSk6hPe+Q95f0i2Slkt6fOE36O6EZVTPvH3JcfEqhzmK35XgtU3MAuBAMxOarKeUsj4QuqX9WqkklkKJSryLX9Cx9IPYaSasq5uP8ApPziHxjQveKY4Mve0lV9FMupM4gAF0KUcptuBb2wEwWmCrFDy1KsUnKEqG1g5B69Yl4RjWdSEKSCMuVai7lnbysX9TBbFJcqXLCZSjmzgpALkeQ5X35xn1Ny3UehHqbGwU9eJviiAiWpCU2yhxr5wh4nVSshzP2jHK3Kwvfof0YcKGnWpMxM4q7Qk5UnL1sX20sOURKrggLlftFZMupSysxuzDqTbzMWovxu+kJRZaLEEyskYlMKiBe2w0bU/nFncA4L2Z+tzx3lAZUi7Pe6edo5cNcLSJEztQFKmJCgUKcE+XqB7oYqSUrtO6SlGXwEBwbu6hrqPJtYJq9QGUCnKtWbayk8/aC+KJy5zBKilL3A8zvyhbpatFOJ/ahalqSUouWuG11AAvY/IixFyglQGVKn1YaDmYVOMcIVkUpBfVwH0vsNR+AhbTajZUAY8wmnKHudDK5xOYlgEknW7AAjZm9fdHDCUKmzUygbkgD1sBz1McqmUdOsWF9HnBykLRUTbDVKCO8TsSNk6HrG01RaaZPMJWJV97cD6nwhuk4fVLqZy1C3Zy8rqzZiAoF30D3YOBaNsHrZNHnUvxKci4sl2CXJYOWPlDXSU5VmBdwT6hzlPpcRXHHuDKRNMxA8Wod25AA/q8I06h3Bz5CKabbUZqTHmJeOV65k1aifEp7adIOfRpUFNchL903Py06sPUwIq6FTgGWsFmDgjy11hv4AwFaZonqQQlDOegLsOZcQxWrIKRj9WnYEk4sftaWZjc5pWVIcq7vkN4DVmApqUS0Th+ybV++GuDm1bQQSm1Dd6ZyLkOLH9CPaqoTIlOSo6Zb3vf4fCMxXNWpv6D4e+YysaahV5ibO+jumzOJisj2Dgk6aFo41eGimQESEgklT6FvPrYRrWYvnX2iVjTMwPXwjr+O8GuF6QTf2wJyqDFB2ULuG+OsXZn4N472lTbuc3E78JU6J6EzJie8ixItcE2sfKDVTUZldNo3XLTLRlQkJfUAN5nziOgQNhjaIqW3sX+U2WqO+GSs05HJPePpp72iLMgjw5KdS1nZgPV3+AhvTLudR6xA1jtQmKapffUS57x36x37UPpE0SErUtQT3SosdHDnlGq5IdmaOOIW95wzfwj2Rkd+yH6MZHbhOtI/D9H2UlKeSQPxPrcxKrZjIJ5/oR2ky+7+vL5RExXYcr/r3QcwI5gfCy09J/jA97H5wy45hoUg823hXwg/tkfzp+Ih2qZnalkXSNVHT8/SJMhjYiVPOoDKngnwmx9fKNjUhCu0SliVJdyNdSxF2bfrDtjuDgpcXIuesKX/p6bhaXDEHy59W6wN6e+NUa4TniNEgGpaYkh0cmu7b7/nCzxBiM+XMmyUSnzEKEwTClUtTByQVFKgLlgALiOvD2IGlnpSSDKWcoI0cdDcHzhnxPBJFSXIZXN/Z8ISX/C+c+cOxCn/r0IiDiUmoo/8AejOJmKIyvMztm+8ki4IBGYaQZ4V4y7aYmWtAStiSG1/XlG2K4HJEuYmc85QS6AkjMgAF2GuntgHhWFTZM4zQZSUByklyWWwyjLtfTaHN9OrTzzKlR5++WPJmpUo3I2eO9fSJypClE+rOfL8YG4NVJUcpUAobaW5+/SCVSjPMSnNo5t7LvGQKZINxkwbHawscQUjCgoB5aEKCwTmAcgNoRcH1hhp1y5ZSlmcakvYdTEKRSzS6lTBZRZrW2Bcm9tRHf6mHCiLMX+cHpmovA+fhKVWV8E/KdJ002MsvfpziBxFS9vKORCVLKWY6guCHPIERvLo1ImAo8PL8YmZShRcgvdtGB005RekxN9w/jzEGbKQVPr3yLS0SEIShRzKADsNTYO3nEurmEJyHVw4a0biWgLcs9tNtfbC7xLxKiRdnLm+ptbQbRZqd1KqLXxj1zOW7sOsN1FQEjOToGYaP1MVzxFic+YsIvlUolwb7puBty6W3grJr5k4CYpJEoHMUlL5m5Dm8GOGZJI7TsjL+642Jew21iVqFRxmMLTFPvNFSiwEU86UFjuF+8p9Wd32PnyiyadKJaRlASlnt1/GNEy0IRlUAUtYG77b+cRaioUs8m0EVZye8eZRmNQAdBN5k0qMYhN9I3lSwA/sjqkRKoeTKlgMCcUlzlPpEzCpgRnfSxiKpne7xiDnOlt/SGkO03gnG4WkSum5Jqsh7pLgeetjpd4irn5vEp/ZDZJw+UpAKkpUS92f0fpygZimApMtSqcZZguEkkpU23Q9RDZ0jsu4dc2g0rpu2nyvA+cc/fHsKH+0c7/46vf8A+MZCvZGbH/Ganw+o/mMuG8RyFkZVi/M/jEufNSskhQL2tFYVXD0xAfIT1Qc3uF/dEOVVLR4Jih6wyaQmQr3lgA5JwbVwffaHmjqQvukAKG3PyimsFxlZnykq72aYhJPmoD5xbExiwZjq+/oYqQVnNYwhOQ8KNbQhCykj+20NMipOi9gDmbUEfGB2MUuc9oCSAGKSzanvaP7/AEjj4yENsRXVgaJpcWUk5geo5+34xKp67vZFOhaXZJ0Vpp97TzF4lyJmVQPI+6OnEOBColqKXCgQUKDOCCCL+UBq0g/MMtQjB4gfDpi1VU9S7JKEhufiuDtpAStzyqoIBeWXULPlv8o60mJVcmaUT5apqeaQXGg5MRu8TqbE5UxRScudN8qgCQz3HrCjqUYm1xaPrcZnTCuH1CoM9RJAbLl10uG2v+rwQNZMmZk2BBOQNe2jnfeJc2tISHSQNwz6nusBt+UeKTKcku5u/JwxA6MYULlrX8pUm5uR5QVUYtMlKS7KRYKSSLqOmVXLmLwZrcTmBSZSgEgixSXeFaVITMxEJDlKUgm/h/QEHq3AkTZomCaUlmI1BbTcN5QaoFVdt7XEgqlwTC9JXBDZlOp3L/BoC4ti5FQZhmfskiwTvvdtWjljHDxVL7pfJ39wbAgb9TzjJHCyClSlZnIBIG2hPq8QtVAgBvIFOmDuvOeO8TOnLLSrtlWCSGa25ALfmNNhVDgU+om9rN0cONmTyHpDZVYNLlSlzAnMoJNz5MPlErCVBFOjOWd/PX4RftG4UWvz4zg6Il0Hum9FS5QwYXBDD5RtLV2QUM5WpSiptkvpHGZWE2QCkczr7NojO0QibRmBN25kmomlTPcx0QnLtff8I5U0sjvHWO8nvK6C/rtFgLtIOBPRmNyfQRKSbRGnHrpHeXNtB1GYNuJzmTAAd7xtKUEjYP8AoRHqgTYDU/r+8FqGiV2ZWlu0uUuWBO3eYkDQWEHpIzmwg3YKMxRpOI/qdbNkzSewmkKBP2CsA5v5SXf284b5s/IoF7H4fD5RSvFNZNXUTDUDLNdlJZmYMB5M199YO8FcTlbUs5V0/u1E3P8ACTzG3S3KNCm5UbTNT8R/DR2a1l5sN1uDjkes8yzu3l/cR7ERkA/rI5e4xkE7YzD7L3ysE8VgFpiVIPW/vS8TJ0uTUjMCM2y0/wDc2vxhbxOnSpbjQ6Btv7xBlzJko5pTuNRsoA6Ec4AlQOMzTr/h+wXUxho6Ps6mSFWImIPQspNweUWjUzSk9AbfP33hCwGul1SEOWLgpUfsqGj9HsRBibxJkzS1y1OCQRaxHXcdYHUTaYip3Rkn1igCJZsW71na9h/qMR0rUUlJUq/XXzhTm8TLHglJHmon4AR4ni6ZoZSD5Ej4wM5lwpEaKSQSS7sn39ILzlkykMOYKfMhtOje2FCm4wl/bQtB2bvCCNNxXJuDMBSo3SoKSzad4jnEec4gxg+ooKtLfaN9usLWK8LomrK0NLWrxFnBGl3PKCKcdkmyZ8u/2VLTfyIPxAjtT41ICmUuWw1ZaSR79NOsRtviSrsmRNKfh+ZJlpSZ5UkWGfvC7WBJdhtG8+UAQMj21BZ/Q6QLVxdSKUEKq5JUoM+cMD/MO6A8Ek1qbJc2+02sCfTjkiWFVj1+U50GHykKXllKStd1HV9tzYHpyMTJaBmyhKySbaM/tfrHSWArwqvYknpv57NEszQh1JDrNknYcz5wI6amxu0k1WkSorJcoqQrM7XZJOvVMcqXGZQ8EuasgaEN8WvHQSCbkax0k0ZBuDFOxF+7JBW3e+8iKrJkwd9Ilg3yPmV5kiws2kamQ5eJ0ySTog+xvjHWXTqOxeLBBe4nbx5SCZO0bIlEmwcwSThatSQPeYnIlhIAH94sunZj3sCUauBxmDqfCyfEW6CJsqhSlLJf1iSmPVmG0oIo4izVWYyBU0JIsREOpkGX2ee+YXbbT9ekFze0J9dxE+JzqZXgCUpl/wA6BmUPXMd/sjnF0ooTcw1IVHvt6C58sD947UlHKKQQCQRz582he4kx9aVKlyB4dAN/dYcgNeg16fXly5SsujEjz2APUkRwwWgyjOu6zck9Y0EC27otEKl1OTeLtZwx2w7acO0mFOpsw1FksIRa/D5SFns1EKQpnQpyhQ07pvqDuNIsXijiVEhXZpSta8rkJBLDR1EaA6B9WhPQ9YVkSQNRcMokOQ+YO739sX2g8iWTUVU4YyF/tFU//Jk/6VfhGRw/2MqOX9P4RkV7JYT84/gPlMxTvGwZrWiBOkslR2TqSW018z+ETO0Cgbs72IvflGoSEslLHckkF+hcadBe0YtO4xPYMBaL3C1cZc/L9ld/WH7iRAV2M827ROVX80tg/qkp9hiua6m7GoRcXVt5j8YsqulZ6BJZ8s5J9FIUD/SI1KoDLeeTI2VSIH7JJ+1HNVNyUI8sLFJ9kbpWjrCRFowCDNOwV96MMhXOJQQlvEffHolp+8I68m0FTpK/SF7EidG90NlXKDFlD3QoVzlZYvDFHJgKsbPor4aNTUdstP7KTo+il7DrlHe82i9ZWGoy3SDycD0/XWKT4SxeppEpRLWSl3KCHSSdeofpD5RfSUAQiolNtnllx17hvryJ8oaSsnBh6/4Nq1G5RfyOfXlD1dw4FXlKKD6lPWzg+/Y2gFVIq6fxy1LR96V+0DdU2WPRJZ9YccJxaRPS8malfMAsoeaT3h6j4xMUn9fr9XiXoU3EQWvUottcfA4MTML4slLYBaSX0dlWv4TfVtoOy8XQSztHmK8N0tQP20lClfeHdV/qF/0YVcQ4DmIvSVS08kTe8nZr7f6TqIWbSsPZjS1NNU67T7+PmP4jgZ4VoY60h1MVLX4nX0R/byXS9lpJynbxXHwgnhf0jy2ZTpP8Q+Yf3tC5psDeGbSvtuuR4jI+ks7NpGijC5RcWyJlwoehBHu0gtIrkL0UD6xxPjFezI5hFOkaLVePErjkoxzNiVC5naSoA5laJBJ8hcx8/V2ILM81I8RmGb6lWaL9mrSmUtSg4IykHfNYjyZ4obiXDzJnzJCO9l7yOakm4YbkDVuR5QRVO0GbX4PUpDtQ/gPlm/3Etg16TTCcPCpKVh+RZQf0gZWcWFakU1IjtZ8zROiUgarWfsoGp9gvCnw1xAk4eqTMUxQ6QHuQbhh0Jb0vaAnD+OikC8gV2yj31nUjYdEjYQ1TbFph6qlse0cquWuWQyTNUmalc5BT3poD5ilJ20ATsBuCSJ/DsxGUqSkByogJOYJBUpSUhQsQlJCX07vKFzjDiWfVU6JUuWkTFJInLBAUEmwSxNlKD5uQ7u5Yhw7IVT0oCyMwB0OwsBBVW2YsT0jJ246R7CH/AOuHkPbGRaVtImI+NX8vyEDl+FPr8YyMjDTpPcniLmL/AL9H8yfiItej/wAEf+Yj+iZGRkaT/pTy1X9c/CKsrWOkyMjIVhBMHzjQ6mMjIqJeRK3SFmV+8HnGRkM0uDKL+snmPvHOj8Sf5h8oi1XjT5fOMjIDPc9YSwn/ABMn/mCL0p/Cny/GMjIc0vBnlv8A6T26fl+8w6frkI5o1Pn/AN0ZGQ1PMwPj/wC5nf8ALV/QI+ezGRkLV+RPR/gfsP8ACSMO/eJ84sbCPGPKPYyFX9kw/wCI+0I9YfpEnYfrlGRkKHiZLcznj/8Ahv8AOn5xUHF3+PpP5v8AvjIyHxwJGn5PxnvDH7yt/wD2/wBMyFZH+Il/5f6oyMiKXtmX13Mg1X+Km/8ANV/XFmSf3f65pjIyHTxMwxdjIyMikPP/2Q==;" vertex="1" parent="1">
          <mxGeometry x="277.18" y="57.19" width="165.62" height="165.62" as="geometry" />
        </mxCell>
        <mxCell id="UXrr3luCY0xZDggjcBqB-5" value="&lt;font style=&quot;font-size: 13px;&quot; face=&quot;Times New Roman&quot;&gt;Lorem ipsum dolor sit amet, consectetur adipiscing elit, sed do eiusmod tempor incididunt ut labore et dolore magna aliqua.&lt;/font&gt;" style="text;whiteSpace=wrap;html=1;" vertex="1" parent="1">
          <mxGeometry x="284.37" y="268" width="151.25" height="100" as="geometry" />
        </mxCell>
        <mxCell id="UXrr3luCY0xZDggjcBqB-6" value="" style="rounded=1;whiteSpace=wrap;html=1;fontStyle=1" vertex="1" parent="1">
          <mxGeometry x="388" y="390" width="51.25" height="23" as="geometry" />
        </mxCell>
        <mxCell id="UXrr3luCY0xZDggjcBqB-8" value="&lt;font style=&quot;font-size: 14px;&quot;&gt;&lt;b&gt;$4.99&lt;/b&gt;&lt;/font&gt;" style="text;html=1;align=center;verticalAlign=middle;resizable=0;points=[];autosize=1;strokeColor=none;fillColor=none;" vertex="1" parent="1">
          <mxGeometry x="275" y="388.5" width="60" height="30" as="geometry" />
        </mxCell>
        <mxCell id="UXrr3luCY0xZDggjcBqB-9" value="&lt;font style=&quot;font-size: 14px;&quot;&gt;&lt;b&gt;Item Name&lt;/b&gt;&lt;/font&gt;" style="text;html=1;align=center;verticalAlign=middle;resizable=0;points=[];autosize=1;strokeColor=none;fillColor=none;" vertex="1" parent="1">
          <mxGeometry x="315" y="238" width="90" height="30" as="geometry" />
        </mxCell>
      </root>
    </mxGraphModel>
  </diagram>
</mxfile>
